<svg xmlns="http://www.w3.org/2000/svg" xml:space="preserve" width="448" height="512" viewBox="0 0 448 512"><path d="M213 0q-49 0-87 16-35 18-56 48-18 30-18 71 0 28 14 53 16 23 44 44 32 19 81 41 53 23 79 39t37 35 11 46q0 42-26 65-28 21-79 21-37 0-60-7-23-11-39-28-14-19-23-51H47v101q90 19 159 19 42 0 78-7 35-9 60-25 26-16 41-44 16-26 14-64 0-35-16-62-18-25-49-46-30-18-87-42-46-19-69-35-26-16-44-34-14-16-16-44 0-25 11-41c19-26 72-4 79 42q14 18 21 49h37V61q-12-14-28-25l7 4q19 5 30 25 14 16 21 49h16q0 18-7 23-9 5-7 23c2 14 18 18 25 16l-9-4q0 2 11-2c-7 2-19-2-21-12q-2-11 5-18 9-7 9-26h16V15A494 494 0 0 0 214-1m124 30v72l5 5q14 18 21 49h37V56q-19-11-64-28m-49 11 14 32c-21-12-25-18-14-32m41 0c4 14 2 19-9 32zm26 42 14 32c-21-12-25-18-14-32m41 0c4 14 2 19-9 32zm-177 4 16 32c-21-12-25-18-16-32m41 0c5 14 4 19-7 32z"/></svg>